<svg width="240" height="240" viewBox="0 0 240 240" fill="none" xmlns="http://www.w3.org/2000/svg">
<g filter="url(#filter0_i_301_263)">
<rect width="240" height="240" rx="120" fill="url(#paint0_radial_301_263)"/>
<path d="M151.904 87.186L151.853 87.2376C151.371 86.7838 150.734 86.5307 150.072 86.5296C149.408 86.5296 148.81 86.784 148.348 87.1908L148.346 87.186L148.238 87.282L148.217 87.3012L143.269 91.6596C143.229 91.6932 143.19 91.7276 143.152 91.7628L143.142 91.77L143.143 91.7712C142.871 92.0504 142.664 92.3871 142.539 92.7565C142.414 93.1259 142.373 93.5187 142.42 93.9059C142.467 94.2932 142.599 94.6651 142.809 94.9942C143.018 95.3234 143.298 95.6015 143.629 95.808C149.465 101.776 153.072 109.932 153.072 118.916C153.072 137.152 138.238 151.987 120 151.987C101.761 151.987 86.9268 137.153 86.9268 118.916C86.9268 109.843 90.6012 101.612 96.5388 95.6292L96.4812 95.5716C97.038 95.0916 97.3992 94.3884 97.3992 93.5952C97.3992 92.886 97.1148 92.244 96.6564 91.7712L96.6576 91.77L96.648 91.7628C96.6096 91.7276 96.5704 91.6932 96.5304 91.6596L91.5828 87.3012L91.5612 87.282L91.4532 87.186L91.452 87.1908C90.9773 86.7671 90.3639 86.5319 89.7276 86.5296C88.7568 86.5296 87.918 87.0636 87.4656 87.8496C79.7496 95.928 75 106.865 75 118.916C75 143.768 95.1456 163.914 120 163.914C144.854 163.914 165 143.768 165 118.916C165 106.536 159.997 95.322 151.904 87.186Z" fill="#67659A"/>
<path d="M116.642 135.28H123.353C124.049 135.28 124.715 135.004 125.207 134.512C125.698 134.021 125.974 133.354 125.974 132.659V78.713V78.707C125.974 78.0119 125.698 77.3453 125.207 76.8538C124.715 76.3623 124.049 76.0862 123.353 76.0862H116.643C115.948 76.0878 115.283 76.365 114.792 76.8571C114.302 77.3492 114.026 78.0158 114.027 78.7106L114.026 78.713V132.659C114.026 134.106 115.197 135.277 116.642 135.28Z" fill="#67659A"/>
</g>
<defs>
<filter id="filter0_i_301_263" x="-1.2" y="-1.2" width="241.2" height="241.2" filterUnits="userSpaceOnUse" color-interpolation-filters="sRGB">
<feFlood flood-opacity="0" result="BackgroundImageFix"/>
<feBlend mode="normal" in="SourceGraphic" in2="BackgroundImageFix" result="shape"/>
<feColorMatrix in="SourceAlpha" type="matrix" values="0 0 0 0 0 0 0 0 0 0 0 0 0 0 0 0 0 0 127 0" result="hardAlpha"/>
<feOffset dx="-1.2" dy="-1.2"/>
<feGaussianBlur stdDeviation="2.4"/>
<feComposite in2="hardAlpha" operator="arithmetic" k2="-1" k3="1"/>
<feColorMatrix type="matrix" values="0 0 0 0 0 0 0 0 0 0 0 0 0 0 0 0 0 0 0.15 0"/>
<feBlend mode="normal" in2="shape" result="effect1_innerShadow_301_263"/>
</filter>
<radialGradient id="paint0_radial_301_263" cx="0" cy="0" r="1" gradientUnits="userSpaceOnUse" gradientTransform="translate(162.6 210.6) rotate(-118.113) scale(148.977)">
<stop stop-color="#1E0B0B"/>
<stop offset="1" stop-color="#182153"/>
</radialGradient>
</defs>
</svg>
