<svg width="48" height="48" viewBox="0 0 48 48" fill="none" xmlns="http://www.w3.org/2000/svg">
<rect width="48" height="48" rx="16" fill="#161621"/>
<path fill-rule="evenodd" clip-rule="evenodd" d="M11.4227 22.3333C11.1515 22.8029 10.9989 23.3315 10.9783 23.8733C10.9576 24.4151 11.0694 24.9538 11.304 25.4427L11.4227 25.6667L16.2667 34.0587C16.539 34.5306 16.923 34.9286 17.3849 35.2178C17.8467 35.5069 18.3725 35.6785 18.916 35.7173L19.1533 35.7253L28.844 35.7253C29.3888 35.7252 29.9252 35.5916 30.4063 35.3361C30.8875 35.0807 31.2987 34.7112 31.604 34.26L31.7307 34.06L36.576 25.6667C36.8472 25.1971 36.9997 24.6685 37.0204 24.1267C37.0411 23.5849 36.9293 23.0462 36.6947 22.5573L36.5747 22.3333L31.7333 13.9413C31.4609 13.4694 31.077 13.0714 30.6151 12.7822C30.1533 12.493 29.6275 12.3215 29.084 12.2827L28.8467 12.2747L19.1547 12.2747C18.6098 12.2749 18.0733 12.4088 17.5921 12.6645C17.1109 12.9201 16.6998 13.2899 16.3947 13.7413L16.268 13.9413L11.4227 22.3333ZM13.732 24.3333C13.6835 24.2492 13.6539 24.1555 13.6454 24.0588C13.6369 23.962 13.6496 23.8646 13.6827 23.7733L13.732 23.6667L18.5773 15.2747C18.6259 15.1906 18.6922 15.1182 18.7717 15.0625C18.8511 15.0068 18.9418 14.9691 19.0373 14.952L19.1547 14.9413L28.8453 14.9413C28.9424 14.9414 29.0382 14.9627 29.1262 15.0037C29.2142 15.0447 29.2922 15.1044 29.3547 15.1787L29.4213 15.2747L34.268 23.6667C34.3165 23.7508 34.3461 23.8445 34.3546 23.9412C34.3631 24.0379 34.3504 24.1354 34.3173 24.2267L34.268 24.3333L29.4227 32.7253C29.3742 32.8096 29.308 32.8823 29.2285 32.9382C29.1491 32.9942 29.0583 33.0321 28.9627 33.0493L28.8453 33.0587L19.1547 33.0587C19.0577 33.0587 18.9619 33.0376 18.8739 32.9969C18.786 32.9561 18.708 32.8967 18.6453 32.8227L18.5773 32.7253L13.732 24.3333ZM18.6667 24C18.6667 25.4145 19.2286 26.771 20.2288 27.7712C21.2289 28.7714 22.5855 29.3333 24 29.3333C25.4145 29.3333 26.771 28.7714 27.7712 27.7712C28.7714 26.771 29.3333 25.4145 29.3333 24C29.3333 22.5855 28.7714 21.2289 27.7712 20.2288C26.771 19.2286 25.4145 18.6667 24 18.6667C22.5855 18.6667 21.229 19.2286 20.2288 20.2288C19.2286 21.2289 18.6667 22.5855 18.6667 24ZM21.3333 24C21.3333 23.2927 21.6143 22.6145 22.1144 22.1144C22.6145 21.6143 23.2927 21.3333 24 21.3333C24.7072 21.3333 25.3855 21.6143 25.8856 22.1144C26.3857 22.6145 26.6667 23.2927 26.6667 24C26.6667 24.7072 26.3857 25.3855 25.8856 25.8856C25.3855 26.3857 24.7072 26.6667 24 26.6667C23.2927 26.6667 22.6145 26.3857 22.1144 25.8856C21.6143 25.3855 21.3333 24.7072 21.3333 24Z" fill="#4066FF"/>
</svg>
