<svg width="32" height="32" viewBox="0 0 32 32" fill="none" xmlns="http://www.w3.org/2000/svg">
<path d="M14.6667 13.3333C14.6667 14.7478 15.2286 16.1044 16.2288 17.1046C17.229 18.1048 18.5855 18.6667 20 18.6667C20.7072 18.6667 21.3855 18.9476 21.8856 19.4477C22.3857 19.9478 22.6667 20.6261 22.6667 21.3333C22.6667 22.0406 22.3857 22.7188 21.8856 23.2189C21.3855 23.719 20.7072 24 20 24C18.7137 23.9934 17.4427 23.7211 16.2667 23.2C15.6 22.9333 15.0667 23.2 14.9333 24L14.8 25.3333L13.6 26.5333C13.0667 27.0667 13.2 27.7333 13.8667 28.1333C15.7333 28.9333 17.8667 29.3333 20 29.3333C24.4 29.3333 28 25.7333 28 21.3333V10.6667C28 9.25217 27.4381 7.89561 26.4379 6.89542C25.4377 5.89523 24.0812 5.33332 22.6667 5.33332H16.5333C15.6 3.73332 13.8667 2.66666 12 2.66666H8C5.73333 2.66666 4 4.39999 4 6.66666V7.99999C4 10.4753 4.98333 12.8493 6.73367 14.5997C8.48401 16.35 10.858 17.3333 13.3333 17.3333H16.5333M20.6667 13.3333H20" stroke="#4066FF" stroke-width="2.66667" stroke-linecap="round" stroke-linejoin="round"/>
</svg>
